<?xml version="1.0" encoding="UTF-8" standalone="no"?>
<!DOCTYPE svg PUBLIC "-//W3C//DTD SVG 1.1//EN" "http://www.w3.org/Graphics/SVG/1.1/DTD/svg11.dtd">
<svg width="100%" height="100%" viewBox="0 0 1080 1080" version="1.1" xmlns="http://www.w3.org/2000/svg" xmlns:xlink="http://www.w3.org/1999/xlink" xml:space="preserve" xmlns:serif="http://www.serif.com/" style="fill-rule:evenodd;clip-rule:evenodd;stroke-linejoin:round;stroke-miterlimit:2;">
    <g transform="matrix(19.0491,0,0,19.0491,-125.24,-1.32621)">
        <path d="M36.13,31.285C36.236,29.394 37.162,27.728 38.559,26.547C39.929,25.387 41.773,24.678 43.785,24.678C45.795,24.678 47.639,25.387 49.01,26.547C50.406,27.728 51.332,29.394 51.439,31.283C51.545,33.226 50.764,35.031 49.394,36.369C47.997,37.73 46.01,38.584 43.785,38.584C41.56,38.584 39.569,37.73 38.173,36.369C36.802,35.031 36.023,33.226 36.13,31.285Z" style="fill:rgb(14,84,139);fill-rule:nonzero;"/>
    </g>
    <g transform="matrix(19.0491,0,0,19.0491,-125.24,-1.32621)">
        <path d="M23.94,35.106C23.953,35.846 24.189,37.284 24.543,38.407C25.287,40.784 26.549,42.983 28.305,44.921C30.107,46.913 32.326,48.513 34.889,49.649C37.583,50.842 40.502,51.45 43.534,51.445C46.561,51.441 49.48,50.821 52.174,49.619C54.737,48.472 56.954,46.865 58.753,44.872C60.508,42.926 61.768,40.723 62.514,38.346C62.889,37.145 63.126,35.926 63.221,34.703C63.314,33.498 63.275,32.291 63.104,31.085C62.77,28.735 61.957,26.53 60.705,24.52C59.56,22.673 58.084,21.056 56.329,19.695L56.333,19.692L38.622,6.093C38.606,6.081 38.593,6.068 38.576,6.057C37.414,5.165 35.46,5.168 34.182,6.062C32.89,6.966 32.742,8.461 33.892,9.404L33.887,9.409L41.274,15.416L18.759,15.44L18.729,15.44C16.868,15.442 15.079,16.663 14.725,18.206C14.361,19.778 15.625,21.082 17.56,21.089L17.557,21.096L28.969,21.074L8.605,36.705C8.579,36.724 8.551,36.744 8.527,36.763C6.606,38.234 5.985,40.68 7.195,42.228C8.423,43.802 11.034,43.805 12.975,42.237L24.089,33.141C24.089,33.141 23.927,34.369 23.94,35.106ZM52.499,39.218C50.209,41.551 47.003,42.874 43.534,42.881C40.06,42.887 36.854,41.576 34.564,39.247C33.445,38.112 32.623,36.806 32.116,35.415C31.619,34.048 31.426,32.597 31.554,31.133C31.675,29.702 32.101,28.337 32.781,27.102C33.449,25.888 34.369,24.791 35.505,23.863C37.731,22.049 40.565,21.067 43.529,21.063C46.496,21.059 49.328,22.032 51.556,23.84C52.69,24.764 53.609,25.857 54.277,27.069C54.96,28.303 55.383,29.663 55.509,31.098C55.635,32.56 55.442,34.009 54.945,35.377C54.437,36.772 53.618,38.078 52.499,39.218Z" style="fill:rgb(244,121,43);fill-rule:nonzero;"/>
    </g>
</svg>
