<?xml version="1.0" encoding="UTF-8" standalone="no"?>
<!DOCTYPE svg PUBLIC "-//W3C//DTD SVG 1.1//EN" "http://www.w3.org/Graphics/SVG/1.1/DTD/svg11.dtd">
<svg width="100%" height="100%" viewBox="0 0 250 140" version="1.1" xmlns="http://www.w3.org/2000/svg" xmlns:xlink="http://www.w3.org/1999/xlink" xml:space="preserve" xmlns:serif="http://www.serif.com/" style="fill-rule:evenodd;clip-rule:evenodd;stroke-linejoin:round;stroke-miterlimit:2;">
    <g>
        <path d="M20.4,128.6C18.7,127.8 16.3,126 15.1,124.4C12.9,121.6 12.9,121.5 13.2,85C13.5,49.5 13.6,48.3 15.8,42.7C22.7,25.6 37.7,16.2 56.8,17.2C70.3,17.9 80,23 87.7,33.4C92.5,39.9 94.7,46.4 95.3,56C96.7,79.7 78.8,99 55.5,99C50.2,99 48.7,98.6 46.1,96.5C40.9,92 39.8,84.2 43.7,78.4C45.5,75.6 50.9,73 55,73C59,73 63.1,70.8 66.4,67C68.6,64.4 69,62.8 69,58C69,53.2 68.6,51.6 66.4,49C59.2,40.5 48.4,41.1 41.6,50.3C39.6,53 39.5,54.6 39,87.8L38.5,122.6L36,125.2C31.6,129.9 26.1,131.1 20.4,128.6Z" style="fill:rgb(87,69,40);fill-rule:nonzero;"/>
        <path d="M120.1,128.2C118.2,127.3 115.8,124.9 114.8,123C113.1,119.8 113,116.2 113,72.9L113,26.3L115.3,22.9C118.1,18.7 121.3,17 126.5,17C131,17 135.7,19.6 137.6,23.2C138.6,25 138.9,36.4 139,73.6L139,121.7L136.3,124.9C133.7,127.7 128.8,130 125,130C124.2,130 122,129.2 120.1,128.2Z" style="fill:rgb(87,69,40);fill-rule:nonzero;"/>
        <path d="M163.1,128.2C161.2,127.3 158.8,124.9 157.8,123C156.1,119.7 155.9,117.1 156.2,84C156.5,49.6 156.6,48.3 158.8,42.7C165.7,25.7 180.9,16.2 199.9,17.2C213.2,17.9 223,23 230.6,33.3C235.6,40.1 237.8,46.1 238.4,55C240,78.7 223.6,97.6 200.5,98.8C192.9,99.2 192.2,99.1 189.3,96.6C183.9,92 182.8,84.3 186.7,78.4C188.6,75.5 193.9,73 198.3,73C202.1,73 207.3,69.9 210.4,65.8C213.1,62 213.1,54 210.4,50.2C203.2,40.6 191.8,40.7 184.6,50.3C182.6,53 182.5,54.4 182.2,87.2L181.9,121.2L179.4,124.5C175.3,129.9 169.1,131.3 163.1,128.2Z" style="fill:rgb(87,69,40);fill-rule:nonzero;"/>
    </g>
</svg>
